# xmcd CD database file
#
# Track frame offsets:
#	150
#	16983
#	32670
#	49542
#	69012
#	86803
#	105030
#	122392
#	138902
#	158793
#	174226
#	195131
#	210755
#
# Disc length: 3338 seconds
#
# Revision: 0
# Processed by: cddbd v1.5.2PL0 Copyright (c) Steve Scherf et al.
# Submitted via: CDex 1.51
#
DISCID=860d080d
DTITLE=Steven Seagal - Mojo Priest
DYEAR=2006
DGENRE=Blues
TTITLE0=01 - She dat pretty
TTITLE1=02 - Red Rooster
TTITLE2=03 - Gunfire in a juke joint
TTITLE3=04 - My time is numbered
TTITLE4=05 - Dark angel
TTITLE5=06 - Alligator ass
TTITLE6=07 - Talk to my ass
TTITLE7=08 - Love doctor
TTITLE8=09 - Hoochie Koochie man
TTITLE9=10 - Barbeque
TTITLE10=11 - Dust my broom
TTITLE11=12 - Shake
TTITLE12=13 - Slow boat to China
EXTD=YEAR: 2006
EXTT0=
EXTT1=
EXTT2=
EXTT3=
EXTT4=
EXTT5=
EXTT6=
EXTT7=
EXTT8=
EXTT9=
EXTT10=
EXTT11=
EXTT12=
PLAYORDER=
